# xmcd CD database file
#
# Track frame offsets:
#	150
#	6225
#	29400
#	57375
#	76048
#	94800
#	118575
#	135000
#	159675
#	177450
#	195525
#	208200
#	211275
#	243375
#
# Disc length: 3572 seconds
#
# Revision: 1
# Processed by: cddbd v1.5.2PL0 Copyright (c) Steve Scherf et al.
# Submitted via: jetAudio 7
#
DISCID=bb0df20e
DTITLE=Imperio - Paz En La Tormenta
DYEAR=1900
DGENRE=Heavy Metal
TTITLE0=Una Vez Mas
TTITLE1=Sera Una Gran Victoria
TTITLE2=Paz En La Tormenta
TTITLE3=Junto A Mi
TTITLE4=Un Paso Atras
TTITLE5=Como La Hiedra
TTITLE6=Maleficio
TTITLE7=Eres
TTITLE8=Inefable
TTITLE9=Voy A Tu Encuentro
TTITLE10=El Inmortal
TTITLE11=Buscando Algun Lugar...
TTITLE12=Para Ser Libre
TTITLE13=You Are ( The Magic)
EXTD=
EXTT0=
EXTT1=
EXTT2=
EXTT3=
EXTT4=
EXTT5=
EXTT6=
EXTT7=
EXTT8=
EXTT9=
EXTT10=
EXTT11=
EXTT12=
EXTT13=
PLAYORDER=
